<?xml version="1.0" encoding="utf-8"?>
<!-- Generator: Adobe Illustrator 27.8.0, SVG Export Plug-In . SVG Version: 6.00 Build 0)  -->
<svg version="1.1" id="Layer_1" xmlns="http://www.w3.org/2000/svg" xmlns:xlink="http://www.w3.org/1999/xlink" x="0px" y="0px"
	 viewBox="0 0 595.3 841.9" style="enable-background:new 0 0 595.3 841.9;" xml:space="preserve">
<style type="text/css">
	.st0{fill:none;stroke:#000000;stroke-miterlimit:10;}
	.st1{fill:#FFFFFF;}
</style>
<g>
	<path class="st0" d="M485.1,345.5"/>
	<g>
		<path class="st1" d="M63.1,656.7V534h73.8c17.1,0,32.2,2.5,45.3,7.5c13.1,5,23.3,12.1,30.7,21.2c7.4,9.1,11,20,11,32.6
			c0,12.5-3.7,23.3-11,32.5c-7.4,9.2-17.6,16.3-30.7,21.3c-13.1,5-28.2,7.5-45.3,7.5H63.1z M107.3,629h27.4c9.1,0,16.9-1.3,23.5-4
			c6.6-2.7,11.8-6.6,15.5-11.7c3.7-5.1,5.6-11.1,5.6-18c0-7.1-1.9-13.2-5.6-18.1c-3.7-5-8.9-8.8-15.5-11.5c-6.6-2.7-14.5-4-23.5-4
			h-27.4V629z"/>
		<path class="st1" d="M330.8,659.2c-12.5,0-23.9-1.6-34.4-4.6c-10.4-3.1-19.5-7.5-27.2-13.1c-7.7-5.7-13.8-12.4-18.1-20.2
			c-4.3-7.8-6.5-16.4-6.5-25.8c0-9.3,2.2-17.9,6.5-25.8c4.3-7.8,10.4-14.6,18.2-20.2c7.8-5.7,17-10,27.5-13.1
			c10.6-3.1,22.2-4.6,35-4.6c14.6,0,27.7,1.9,39.3,5.8s21.2,9.4,28.8,16.7l-28.1,20c-5.4-4.7-11.1-8.1-17.3-10.3
			c-6.2-2.2-13-3.3-20.6-3.3c-6.7,0-12.8,0.8-18.3,2.5c-5.5,1.6-10.2,4-14.1,7.1c-3.9,3.1-6.9,6.8-9,11.1c-2.2,4.3-3.2,9.1-3.2,14.4
			c0,5.1,1.1,9.9,3.2,14.2c2.2,4.3,5.2,8,9,11.1c3.9,3.1,8.5,5.5,13.9,7.2c5.4,1.7,11.4,2.5,18,2.5c6.5,0,12.9-0.8,19.2-2.5
			c6.2-1.7,12.6-4.6,19-8.7l24.8,24.4c-9.1,5-19.4,8.9-31.1,11.6C353.6,657.8,342.1,659.2,330.8,659.2z M396.4,643.6l-39.3-4.6
			v-46.3h39.3V643.6z"/>
		<path class="st1" d="M484.9,659.2c-12.9,0-25.3-1.3-37.1-3.8s-21.4-5.7-28.7-9.6l14.5-25.8c7,3.5,15.1,6.4,24.2,8.7
			s18.3,3.4,27.3,3.4c6.2,0,11.2-0.4,14.8-1.2c3.6-0.8,6.3-2,8-3.5c1.7-1.5,2.6-3.3,2.6-5.4c0-2.7-1.6-4.8-4.9-6.4
			c-3.3-1.6-7.5-2.9-12.8-4c-5.3-1.1-11-2.2-17.2-3.2c-6.2-1-12.5-2.3-18.8-3.9c-6.4-1.6-12.2-3.8-17.4-6.5
			c-5.2-2.7-9.4-6.2-12.6-10.5c-3.2-4.3-4.8-9.8-4.8-16.3c0-7.2,2.5-13.8,7.6-19.8c5.1-6,12.7-10.8,23-14.4
			c10.3-3.6,23-5.4,38.4-5.4c10.3,0,20.3,0.9,30.2,2.7c9.9,1.8,18.6,4.5,26.2,8.2L534,568c-7.4-3.3-14.8-5.7-22.1-7.2
			c-7.3-1.5-14.4-2.3-21.2-2.3c-6.1,0-11,0.5-14.7,1.6c-3.7,1.1-6.4,2.4-8,4c-1.6,1.6-2.5,3.4-2.5,5.3c0,2.8,1.6,5,4.9,6.6
			c3.3,1.6,7.5,2.9,12.7,3.9c5.2,1,11,2,17.3,3.1c6.3,1.1,12.6,2.4,18.8,3.9c6.2,1.6,12,3.7,17.3,6.3c5.3,2.6,9.6,6.1,12.8,10.3
			c3.3,4.3,4.9,9.6,4.9,16c0,7.1-2.6,13.7-7.7,19.7c-5.1,6-12.8,10.8-23.1,14.5C513.2,657.3,500.4,659.2,484.9,659.2z"/>
	</g>
	<g>
		<g>
			<path class="st1" d="M136.3,726.6v-41H164c7.1,0,12.6,0.9,16.4,2.8c3.8,1.9,5.7,4.5,5.7,7.8c0,2.2-0.7,4.1-2.2,5.6
				c-1.5,1.5-3.5,2.7-6,3.5c-2.5,0.8-5.3,1.2-8.2,1.2l1.6-1.8c3.5,0,6.6,0.4,9.3,1.2c2.7,0.8,4.9,2,6.4,3.6c1.6,1.6,2.4,3.5,2.4,5.9
				c0,3.5-2,6.2-6,8.2c-4,1.9-9.9,2.9-17.7,2.9H136.3z M145.1,721.8h20.3c4.9,0,8.6-0.5,11.2-1.6c2.6-1.1,3.9-2.8,3.9-5.2
				c0-2.4-1.3-4.1-3.9-5.2c-2.6-1.1-6.3-1.6-11.2-1.6h-21.1v-4.7h18.9c4.5,0,7.9-0.5,10.4-1.6s3.7-2.7,3.7-4.9
				c0-2.2-1.2-3.8-3.7-4.9c-2.5-1.1-5.9-1.6-10.4-1.6h-18.1V721.8z"/>
		</g>
		<g>
			<path class="st1" d="M246.7,727.1c-4.4,0-8.4-0.5-12.2-1.6c-3.7-1.1-7-2.5-9.7-4.4c-2.7-1.9-4.9-4.1-6.4-6.7
				c-1.5-2.5-2.3-5.3-2.3-8.3s0.8-5.8,2.3-8.3c1.5-2.5,3.7-4.8,6.4-6.7c2.7-1.9,5.9-3.4,9.7-4.4c3.7-1.1,7.8-1.6,12.2-1.6
				c4.4,0,8.4,0.5,12.1,1.6c3.7,1,6.9,2.5,9.7,4.4c2.7,1.9,4.8,4.1,6.3,6.7c1.5,2.6,2.3,5.3,2.3,8.4c0,3-0.8,5.8-2.3,8.4
				c-1.5,2.5-3.6,4.8-6.3,6.7c-2.7,1.9-6,3.4-9.7,4.4C255.1,726.5,251.1,727.1,246.7,727.1z M246.6,721.8c3.2,0,6.2-0.4,8.9-1.2
				c2.7-0.8,5-1.9,7-3.3c2-1.4,3.5-3.1,4.7-5c1.1-1.9,1.7-4,1.7-6.3c0-2.3-0.6-4.3-1.7-6.2c-1.1-1.9-2.7-3.6-4.7-5
				c-2-1.4-4.3-2.6-7-3.3c-2.7-0.8-5.7-1.2-8.9-1.2c-3.2,0-6.1,0.4-8.8,1.2c-2.7,0.8-5.1,1.9-7.1,3.3c-2,1.4-3.6,3.1-4.7,5
				c-1.1,1.9-1.7,4-1.7,6.2c0,2.3,0.6,4.4,1.7,6.3c1.1,1.9,2.7,3.6,4.7,5c2,1.4,4.4,2.5,7.1,3.3
				C240.5,721.5,243.5,721.8,246.6,721.8z"/>
		</g>
		<g>
			<path class="st1" d="M337.1,727.1c-8.1,0-14.5-1.5-19.2-4.6c-4.7-3.1-7-7.6-7-13.5v-23.3h8.8v23.1c0,4.6,1.5,7.9,4.5,10
				c3,2.1,7.3,3.2,12.8,3.2c5.6,0,9.9-1.1,12.9-3.2c3-2.1,4.5-5.5,4.5-10v-23.1h8.6v23.3c0,5.9-2.3,10.5-6.9,13.5
				C351.6,725.5,345.2,727.1,337.1,727.1z"/>
		</g>
		<g>
			<path class="st1" d="M413.8,726.6l-18.5-41h8.2l17,37.9h-4.1l17.7-37.9h7.3l17.3,37.9h-4l17.3-37.9h7.5l-18.5,41h-8.3l-16.2-35.1
				h2.1l-16.2,35.1H413.8z"/>
		</g>
	</g>
	<path class="st1" d="M403.5,414.9c-27,2.4-53.1,5.9-78,10.4v-2.5V130.5l78-66.8v347.1V414.9z"/>
	<path class="st1" d="M311.3,428c-8.7,1.7-17.2,3.5-25.5,5.5v-2.3V164.6l25.5-21.9v283.1V428z"/>
	<path class="st1" d="M272.4,436.7c-8.7,2.2-17.2,4.6-25.5,7l0-2.9V197.9l25.5-21.9v258.3V436.7z"/>
	<path class="st1" d="M232.3,448.3c-8.8,2.8-17.3,5.8-25.5,8.9v-3V299.8l25.5-15.3v161.3L232.3,448.3z"/>
	<path class="st1" d="M193.5,462.4c-8.9,3.6-17.4,7.4-25.5,11.4l0-3.9V322.5l25.5-15.3v151.6L193.5,462.4z"/>
	<path class="st1" d="M126,498c7.9-5.4,16.4-10.6,25.5-15.6l0-4.3V331.6L126,346.9v150.3L126,498z"/>
	<path class="st1" d="M482.9,406.2V248.7l-63.6-38.9v198.5l0,5.3c20.7-1.5,42-2.4,63.6-2.7L482.9,406.2z"/>
	<path class="st1" d="M146.7,501.6c74.7-45.8,197.9-75.9,338.4-77.3c0,0,3.7,77.8-69,76.6c-41.4-0.7-183.5-9.1-269.3,0.6
		L146.7,501.6z"/>
	<path class="st0" d="M482.9,424.4"/>
</g>
</svg>
